<svg width="512" height="512" viewBox="0 0 512 512" fill="none" xmlns="http://www.w3.org/2000/svg">
    
    <!-- Flat Cloud -->
    <path d="M160 144C160 108.654 188.654 80 224 80C259.346 80 288 108.654 288 144H352C393.869 144 428 178.131 428 220C428 261.869 393.869 296 352 296H160C104.772 296 60 251.228 60 196C60 140.772 104.772 96 160 96V144Z" fill="#B0B0B0"/>

    <!-- Inverted Flat Raindrops -->
    <path d="M160 328C160 305.909 177.909 288 200 288C222.091 288 240 305.909 240 328C240 364 200 400 200 400C200 400 160 364 160 328Z" fill="#D0F2FE" transform="rotate(180 200 344)"/>
    <path d="M240 360C240 337.909 257.909 320 280 320C302.091 320 320 337.909 320 360C320 396 280 432 280 432C280 432 240 396 240 360Z" fill="#D0F2FE" transform="rotate(180 280 376)"/>
    <path d="M320 328C320 305.909 337.909 288 360 288C382.091 288 400 305.909 400 328C400 364 360 400 360 400C360 400 320 364 320 328Z" fill="#D0F2FE" transform="rotate(180 360 344)"/>

    <!-- Red Exclamation Mark -->
    <rect x="400" y="90" width="16" height="48" rx="8" fill="#EF4444"/>
    <rect x="400" y="142" width="16" height="16" rx="8" fill="#EF4444"/>
</svg>
